<svg width="100" height="92" viewBox="0 0 100 92" fill="none" xmlns="http://www.w3.org/2000/svg">
<path d="M89.5221 91.4774C95.3089 91.4774 100 86.8118 100 81.0566C100 75.3014 95.3089 70.6358 89.5221 70.6358C83.7353 70.6358 79.0442 75.3014 79.0442 81.0566C79.0442 86.8118 83.7353 91.4774 89.5221 91.4774Z" fill="black"/>
<path d="M65.7729 74.1726C63.978 72.354 63.002 70.1784 62.8113 67.6569C57.7631 71.9635 51.8398 74.1168 45.0191 74.1168C38.1422 74.1168 32.0507 71.9635 26.7444 67.6569C19.9125 62.1452 16.4909 54.6588 16.4909 45.1976C16.4909 36.707 19.2057 29.7003 24.6354 24.1887C30.0651 18.677 36.7512 15.9324 44.7274 15.9324C52.6139 15.9324 59.3112 18.7551 64.8194 24.4006C70.3276 30.0462 73.076 36.9413 73.076 45.086C73.076 49.3703 72.3132 53.2865 70.8099 56.8456C71.483 56.7117 72.1898 56.6448 72.919 56.6448C75.7236 56.6448 78.1243 57.6489 80.1211 59.6684C82.118 61.6878 83.1276 64.1201 83.1276 66.9986C83.1276 67.6234 83.0716 68.2147 82.9706 68.806C87.2896 61.8998 89.4548 54.034 89.4548 45.2087C89.4548 32.6011 85.0796 21.9126 76.3069 13.1543C67.5342 4.39591 57.0787 0 44.8957 0C36.8521 0 29.3471 2.00828 22.3917 6.02485C15.4252 10.0414 9.95064 15.4749 5.96814 22.3477C1.98564 29.1982 0 36.7181 0 44.9075C0 57.1245 4.27417 67.6792 12.8225 76.5603C21.3709 85.4413 32.1068 89.8819 45.0191 89.8819C57.348 89.8819 67.8371 85.5529 76.4864 76.9061C76.6322 76.7611 76.7669 76.6049 76.9127 76.4598C75.7236 76.9619 74.4222 77.2185 73.0424 77.2185C70.1929 77.2185 67.781 76.2032 65.7729 74.1726Z" fill="black"/>
</svg>
