<svg width="100" height="94" viewBox="0 0 100 94" fill="none" xmlns="http://www.w3.org/2000/svg">
<g clip-path="url(#clip0)">
<path d="M87.3386 93.4426H12.6547C5.66837 93.4426 0 87.8321 0 80.9104V12.5256C0 5.61055 5.66837 0 12.6547 0H87.3386C94.3316 0 99.9933 5.61055 99.9933 12.5256V80.9104C100 87.8321 94.3316 93.4426 87.3386 93.4426Z" fill="black"/>
<path d="M83.0151 82.2149C87.4974 82.2149 91.131 78.6183 91.131 74.1817C91.131 69.7451 87.4974 66.1486 83.0151 66.1486C78.5328 66.1486 74.8991 69.7451 74.8991 74.1817C74.8991 78.6183 78.5328 82.2149 83.0151 82.2149Z" fill="#009BDA"/>
<path d="M64.6315 68.8773C63.2464 67.473 62.4866 65.7959 62.3386 63.8591C58.432 67.1735 53.8462 68.8307 48.5678 68.8307C43.2491 68.8307 38.5355 67.1735 34.4271 63.8591C29.1353 59.6129 26.4927 53.8493 26.4927 46.5549C26.4927 40.0126 28.5906 34.615 32.7932 30.3755C36.989 26.1293 42.1732 24.0129 48.3392 24.0129C54.4446 24.0129 59.6288 26.1826 63.8852 30.5352C68.1482 34.8813 70.2797 40.1923 70.2797 46.4684C70.2797 49.7629 69.688 52.7844 68.5315 55.5331C69.0559 55.4267 69.5939 55.3734 70.1587 55.3734C72.3238 55.3734 74.1864 56.1521 75.7329 57.7028C77.2795 59.2535 78.0594 61.137 78.0594 63.3466C78.0594 63.8258 78.0191 64.2851 77.9384 64.7376C81.2803 59.4133 82.9546 53.3568 82.9546 46.5616C82.9546 36.8513 79.5656 28.6185 72.7811 21.8632C65.9965 15.1079 57.9008 11.7336 48.4804 11.7336C42.2606 11.7336 36.451 13.2776 31.0584 16.3724C25.6657 19.4606 21.4295 23.6535 18.3499 28.9446C15.2703 34.2357 13.7305 40.0326 13.7305 46.3353C13.7305 55.7461 17.0387 63.8791 23.6552 70.7209C30.2717 77.5627 38.5758 80.9836 48.5745 80.9836C58.1159 80.9836 66.2386 77.6492 72.929 70.9871C73.0433 70.874 73.1442 70.7608 73.2585 70.6477C72.3373 71.0404 71.3354 71.2334 70.2596 71.2334C68.0541 71.2267 66.1848 70.4414 64.6315 68.8773Z" fill="white"/>
</g>
<defs>
<clipPath id="clip0">
<rect width="100" height="93.4426" rx="15" fill="white"/>
</clipPath>
</defs>
</svg>
