<?xml version="1.0" encoding="utf-8"?>
<!-- Generator: Adobe Illustrator 25.2.3, SVG Export Plug-In . SVG Version: 6.00 Build 0)  -->
<svg version="1.1" id="Layer_1" xmlns="http://www.w3.org/2000/svg" xmlns:xlink="http://www.w3.org/1999/xlink" x="0px" y="0px"
	 viewBox="0 0 100 92" style="enable-background:new 0 0 100 92;" xml:space="preserve">
<style type="text/css">
	.st0{fill:#009BDA;}
	.st1{fill:#FFFFFF;}
</style>
<path class="st0" d="M89.5,91.5c5.8,0,10.5-4.7,10.5-10.4c0-5.8-4.7-10.4-10.5-10.4c-5.8,0-10.5,4.7-10.5,10.4
	C79,86.8,83.7,91.5,89.5,91.5z"/>
<path class="st1" d="M65.8,74.2c-1.8-1.8-2.8-4-3-6.5c-5,4.3-11,6.5-17.8,6.5c-6.9,0-13-2.2-18.3-6.5c-6.8-5.5-10.3-13-10.3-22.5
	c0-8.5,2.7-15.5,8.1-21c5.4-5.5,12.1-8.3,20.1-8.3c7.9,0,14.6,2.8,20.1,8.5c5.5,5.6,8.3,12.5,8.3,20.7c0,4.3-0.8,8.2-2.3,11.8
	c0.7-0.1,1.4-0.2,2.1-0.2c2.8,0,5.2,1,7.2,3c2,2,3,4.5,3,7.3c0,0.6-0.1,1.2-0.2,1.8c4.3-6.9,6.5-14.8,6.5-23.6
	c0-12.6-4.4-23.3-13.1-32.1C67.5,4.4,57.1,0,44.9,0c-8,0-15.5,2-22.5,6C15.4,10,10,15.5,6,22.3c-4,6.9-6,14.4-6,22.6
	c0,12.2,4.3,22.8,12.8,31.7c8.5,8.9,19.3,13.3,32.2,13.3c12.3,0,22.8-4.3,31.5-13c0.1-0.1,0.3-0.3,0.4-0.4c-1.2,0.5-2.5,0.8-3.9,0.8
	C70.2,77.2,67.8,76.2,65.8,74.2z"/>
</svg>
